<svg width="28.000000" height="28.000000" viewBox="0 0 28 28" fill="none" xmlns="http://www.w3.org/2000/svg" xmlns:xlink="http://www.w3.org/1999/xlink">
	<desc>
			Created with Pixso.
	</desc>
	<defs>
		<clipPath id="clip14_2538">
			<rect id="bell" rx="0.000000" width="27.000000" height="27.000000" transform="translate(0.500000 0.500000)" fill="white" fill-opacity="0"/>
		</clipPath>
	</defs>
	<rect id="bell" rx="0.000000" width="27.000000" height="27.000000" transform="translate(0.500000 0.500000)" fill="#FFFFFF" fill-opacity="0"/>
	<g clip-path="url(#clip14_2538)">
		<path id="Union" d="M21.95 16.5C20.92 16.14 20.98 13.75 21.02 11.71C21.04 10.85 21.06 10.06 21 9.5C20.5 5 17 3 14 3C11 3 7.5 5 7 9.5C6.93 10.1 6.94 10.92 6.96 11.78C7 13.83 7.05 16.14 6 16.5C4.79 16.78 4 17.71 4 19C4 20.24 4.81 21.3 6.04 21.49C7.65 21.73 10.25 22 14 22C17.74 22 20.34 21.73 21.95 21.49C23.18 21.3 24 20.24 24 19C24 17.71 23.16 16.78 21.95 16.5ZM6.54 18.42L6.46 18.44C6.23 18.49 6.13 18.58 6.09 18.63C6.06 18.68 6 18.78 6 19C6 19.18 6.05 19.3 6.11 19.38C6.17 19.45 6.24 19.49 6.34 19.51C7.85 19.74 10.35 20 14 20C17.64 20 20.14 19.74 21.65 19.51C21.75 19.49 21.82 19.45 21.88 19.38C21.94 19.3 22 19.18 22 19C22 18.81 21.94 18.72 21.89 18.66C21.84 18.59 21.72 18.5 21.48 18.44L21.39 18.42L21.3 18.39C19.93 17.91 19.46 16.63 19.28 15.97C19.08 15.2 19.02 14.32 19.01 13.57C18.99 12.92 19.01 12.24 19.02 11.65C19.02 11.52 19.03 11.4 19.03 11.28C19.04 10.55 19.04 10.04 19.01 9.72C18.64 6.4 16.16 5 14 5C11.83 5 9.35 6.4 8.98 9.72C8.94 10.08 8.94 10.61 8.95 11.34C8.96 11.46 8.96 11.59 8.96 11.72C8.97 12.32 8.99 12.99 8.97 13.62C8.95 14.37 8.89 15.25 8.68 16.02C8.48 16.71 7.98 17.94 6.63 18.39L6.54 18.42ZM10.5 23.95C10.52 23.39 10.99 22.97 11.55 23C13.51 23.09 14.48 23.09 16.45 23C17 22.97 17.47 23.39 17.49 23.95C17.52 24.5 17.1 24.97 16.54 24.99C14.51 25.1 13.48 25.1 11.45 24.99C10.89 24.97 10.47 24.5 10.5 23.95Z" fill="#1D1E21" fill-opacity="1.000000" fill-rule="evenodd"/>
	</g>
</svg>
