<svg width="28.000000" height="28.000000" viewBox="0 0 28 28" fill="none" xmlns="http://www.w3.org/2000/svg" xmlns:xlink="http://www.w3.org/1999/xlink">
	<desc>
			Created with Pixso.
	</desc>
	<defs>
		<clipPath id="clip14_2532">
			<rect id="bookmark" rx="0.000000" width="27.000000" height="27.000000" transform="translate(0.500000 0.500000)" fill="white" fill-opacity="0"/>
		</clipPath>
	</defs>
	<rect id="bookmark" rx="0.000000" width="27.000000" height="27.000000" transform="translate(0.500000 0.500000)" fill="#FFFFFF" fill-opacity="0"/>
	<g clip-path="url(#clip14_2532)">
		<path id="Union" d="M5.76 6.81C5.86 4.67 7.62 2.99 9.76 2.99L18.23 2.99C20.37 2.99 22.13 4.67 22.23 6.81L22.99 22.9C23.08 24.68 20.96 25.68 19.64 24.47L15.35 20.52C14.58 19.82 13.41 19.82 12.64 20.52L8.35 24.47C7.03 25.68 4.91 24.68 5 22.9L5.76 6.81ZM9.76 4.99C8.69 4.99 7.81 5.83 7.76 6.9L7 22.99L11.29 19.05C12.82 17.64 15.17 17.64 16.7 19.05L20.99 22.99L20.23 6.9C20.18 5.83 19.3 4.99 18.23 4.99L9.76 4.99Z" fill="#1D1E21" fill-opacity="1.000000" fill-rule="evenodd"/>
	</g>
</svg>
