<svg width="28.000000" height="28.000000" viewBox="0 0 28 28" fill="none" xmlns="http://www.w3.org/2000/svg" xmlns:xlink="http://www.w3.org/1999/xlink">
	<desc>
			Created with Pixso.
	</desc>
	<defs/>
	<rect id="chat" rx="0.000000" width="27.000000" height="27.000000" transform="translate(0.500000 0.500000)" fill="#FFFFFF" fill-opacity="0"/>
	<path id="Union" d="M6.24 6.22C10.53 1.92 17.5 1.92 21.79 6.21C26.09 10.51 26.08 17.48 21.79 21.77C18.44 25.13 13.47 25.86 9.4 23.99C8.82 23.75 8.57 23.67 8.38 23.67C8.26 23.67 8 23.73 7.58 23.87C7.18 24.01 6.73 24.19 6.28 24.38L6.26 24.39C5.84 24.56 5.38 24.75 5.01 24.87C4.82 24.93 4.6 24.99 4.38 25.01C4.28 25.03 4.13 25.03 3.96 25C3.8 24.97 3.55 24.9 3.34 24.68C2.96 24.3 2.98 23.83 3.01 23.65C3.03 23.43 3.1 23.22 3.16 23.06C3.25 22.82 3.39 22.52 3.52 22.23C3.56 22.14 3.61 22.05 3.64 21.96C4.02 21.13 4.33 20.32 4.33 19.62C4.33 19.43 4.25 19.18 4.02 18.6C2.15 14.54 2.88 9.57 6.24 6.22ZM20.38 7.63C16.87 4.12 11.16 4.12 7.65 7.63C4.9 10.38 4.3 14.45 5.85 17.79C5.86 17.8 5.86 17.82 5.87 17.83L5.89 17.88C6.09 18.38 6.33 18.99 6.33 19.62C6.33 20.67 5.93 21.72 5.59 22.5C6.01 22.33 6.48 22.13 6.92 21.98C7.37 21.83 7.9 21.67 8.37 21.67L8.38 21.67C9.01 21.67 9.62 21.92 10.11 22.11L10.17 22.14C10.19 22.15 10.21 22.15 10.22 22.16C13.56 23.7 17.63 23.11 20.38 20.36C23.89 16.85 23.9 11.15 20.38 7.63ZM11 14C11 14.55 10.55 15 10 15C9.44 15 9 14.55 9 14C9 13.44 9.44 13 10 13C10.55 13 11 13.44 11 14ZM14 15C14.55 15 15 14.55 15 14C15 13.44 14.55 13 14 13C13.44 13 13 13.44 13 14C13 14.55 13.44 15 14 15ZM18 15C18.55 15 19 14.55 19 14C19 13.44 18.55 13 18 13C17.44 13 17 13.44 17 14C17 14.55 17.44 15 18 15Z" fill="#1D1E21" fill-opacity="1.000000" fill-rule="evenodd"/>
</svg>
