<svg width="28.000000" height="28.000000" viewBox="0 0 28 28" fill="none" xmlns="http://www.w3.org/2000/svg" xmlns:xlink="http://www.w3.org/1999/xlink">
	<desc>
			Created with Pixso.
	</desc>
	<defs>
		<clipPath id="clip14_2520">
			<rect id="compass" rx="0.000000" width="27.000000" height="27.000000" transform="translate(0.500000 0.500000)" fill="white" fill-opacity="0"/>
		</clipPath>
	</defs>
	<rect id="compass" rx="0.000000" width="27.000000" height="27.000000" transform="translate(0.500000 0.500000)" fill="#FFFFFF" fill-opacity="0"/>
	<g clip-path="url(#clip14_2520)">
		<path id="Union" d="M14 25C20.07 25 25 20.07 25 14C25 7.92 20.07 3 14 3C7.92 3 3 7.92 3 14C3 20.07 7.92 25 14 25ZM14 23C18.97 23 23 18.97 23 14C23 9.02 18.97 5 14 5C9.02 5 5 9.02 5 14C5 18.97 9.02 23 14 23ZM18.95 10.28C19.06 9.92 18.96 9.54 18.69 9.28C18.43 9.02 18.04 8.93 17.69 9.04L11.64 10.99C11.33 11.09 11.09 11.33 10.99 11.64L9.04 17.69C8.93 18.04 9.02 18.43 9.28 18.69C9.54 18.96 9.92 19.06 10.28 18.95L16.47 17.15C16.8 17.05 17.05 16.8 17.15 16.47L18.95 10.28ZM12.74 12.74L11.53 16.51L15.38 15.38L12.74 12.74Z" fill="#1D1E21" fill-opacity="1.000000" fill-rule="evenodd"/>
	</g>
</svg>
