<svg width="24.000000" height="24.000000" viewBox="0 0 24 24" fill="none" xmlns="http://www.w3.org/2000/svg" xmlns:xlink="http://www.w3.org/1999/xlink">
	<desc>
			Created with Pixso.
	</desc>
	<defs>
		<clipPath id="clip14_2556">
			<rect id="info" rx="0.000000" width="23.000000" height="23.000000" transform="translate(0.500000 0.500000)" fill="white" fill-opacity="0"/>
		</clipPath>
	</defs>
	<rect id="info" rx="0.000000" width="23.000000" height="23.000000" transform="translate(0.500000 0.500000)" fill="#FFFFFF" fill-opacity="0"/>
	<g clip-path="url(#clip14_2556)">
		<path id="Union" d="M3.25 12C3.25 7.16 7.16 3.25 12 3.25C16.83 3.25 20.75 7.16 20.75 12C20.75 16.83 16.83 20.75 12 20.75C7.16 20.75 3.25 16.83 3.25 12ZM12 4.75C7.99 4.75 4.75 7.99 4.75 12C4.75 16 7.99 19.25 12 19.25C16 19.25 19.25 16 19.25 12C19.25 7.99 16 4.75 12 4.75ZM13 8C13 8.55 12.55 9 12 9C11.44 9 11 8.55 11 8C11 7.44 11.44 7 12 7C12.55 7 13 7.44 13 8ZM12 10.5C12.55 10.5 13 10.94 13 11.5L13 16C13 16.55 12.55 17 12 17C11.44 17 11 16.55 11 16L11 11.5C11 10.94 11.44 10.5 12 10.5Z" fill="#8F98A6" fill-opacity="1.000000" fill-rule="evenodd"/>
	</g>
</svg>
