<svg width="28.000000" height="28.000000" viewBox="0 0 28 28" fill="none" xmlns="http://www.w3.org/2000/svg" xmlns:xlink="http://www.w3.org/1999/xlink">
	<desc>
			Created with Pixso.
	</desc>
	<defs>
		<clipPath id="clip14_2514">
			<rect rx="0.000000" width="27.000000" height="27.000000" transform="translate(0.500000 0.500000)" fill="white" fill-opacity="0"/>
		</clipPath>
	</defs>
	<rect rx="0.000000" width="27.000000" height="27.000000" transform="translate(0.500000 0.500000)" fill="#FFFFFF" fill-opacity="0"/>
	<g clip-path="url(#clip14_2514)">
		<path d="M3.32 8.98C3.46 6.88 3.53 5.82 3.98 5.02C4.38 4.32 4.98 3.75 5.71 3.4C6.54 3 7.6 3 9.71 3L18.28 3C20.39 3 21.45 3 22.28 3.4C23.01 3.75 23.61 4.32 24.01 5.02C24.46 5.82 24.53 6.88 24.67 8.98L24.87 12.18C25.03 14.55 25.1 15.74 24.69 16.65C24.32 17.45 23.71 18.11 22.93 18.52C22.05 19 20.86 19 18.49 19L9.5 19C7.13 19 5.94 19 5.06 18.52C4.28 18.11 3.67 17.45 3.3 16.65C2.89 15.74 2.96 14.55 3.12 12.18L3.32 8.98ZM6.93 21C6.93 20.44 7.38 20 7.93 20L20.06 20C20.61 20 21.06 20.44 21.06 21C21.06 21.55 20.61 22 20.06 22L7.93 22C7.38 22 6.93 21.55 6.93 21ZM8.95 24C8.95 23.44 9.4 23 9.95 23L18.04 23C18.59 23 19.04 23.44 19.04 24C19.04 24.55 18.59 25 18.04 25L9.95 25C9.4 25 8.95 24.55 8.95 24Z" fill="#1D1E21" fill-opacity="1.000000" fill-rule="evenodd"/>
	</g>
</svg>
