<svg width="28.000000" height="28.000000" viewBox="0 0 28 28" fill="none" xmlns="http://www.w3.org/2000/svg" xmlns:xlink="http://www.w3.org/1999/xlink">
	<desc>
			Created with Pixso.
	</desc>
	<defs>
		<clipPath id="clip14_2526">
			<rect id="video" rx="0.000000" width="27.000000" height="27.000000" transform="translate(0.500000 0.500000)" fill="white" fill-opacity="0"/>
		</clipPath>
	</defs>
	<rect id="video" rx="0.000000" width="27.000000" height="27.000000" transform="translate(0.500000 0.500000)" fill="#FFFFFF" fill-opacity="0"/>
	<g clip-path="url(#clip14_2526)">
		<path id="Union" d="M2.39 8.68C2 9.81 2 11.2 2 14C2 16.79 2 18.18 2.39 19.31C3.09 21.32 4.67 22.9 6.68 23.6C7.81 24 9.2 24 12 24L16 24C18.79 24 20.18 24 21.31 23.6C23.32 22.9 24.9 21.32 25.6 19.31C26 18.18 26 16.79 26 14C26 11.2 26 9.81 25.6 8.68C24.9 6.67 23.32 5.09 21.31 4.39C20.18 4 18.79 4 16 4L12 4C9.2 4 7.81 4 6.68 4.39C4.67 5.09 3.09 6.67 2.39 8.68ZM16 6L12 6C9.03 6 8.06 6.02 7.34 6.28C5.91 6.78 4.78 7.91 4.28 9.34C4.02 10.06 4 11.03 4 14C4 16.96 4.02 17.93 4.28 18.65C4.78 20.08 5.91 21.21 7.34 21.71C8.06 21.97 9.03 22 12 22L16 22C18.96 22 19.93 21.97 20.65 21.71C22.08 21.21 23.21 20.08 23.71 18.65C23.97 17.93 24 16.96 24 14C24 11.03 23.97 10.06 23.71 9.34C23.21 7.91 22.08 6.78 20.65 6.28C19.93 6.02 18.96 6 16 6ZM12.51 10.14C12.2 9.95 11.82 9.95 11.5 10.12C11.19 10.3 11 10.63 11 11L11 17C11 17.36 11.19 17.69 11.5 17.87C11.82 18.04 12.2 18.04 12.51 17.85L17.51 14.85C17.81 14.67 18 14.35 18 14C18 13.64 17.81 13.32 17.51 13.14L12.51 10.14Z" fill="#1D1E21" fill-opacity="1.000000" fill-rule="evenodd"/>
	</g>
</svg>
